<?xml version="1.0" standalone="no"?>
<!DOCTYPE svg PUBLIC "-//W3C//DTD SVG 20010904//EN"
 "http://www.w3.org/TR/2001/REC-SVG-20010904/DTD/svg10.dtd">
<svg version="1.0" xmlns="http://www.w3.org/2000/svg"
 width="128.000000pt" height="128.000000pt" viewBox="0 0 128.000000 128.000000"
 preserveAspectRatio="xMidYMid meet">
<metadata>
Created by potrace 1.11, written by Peter Selinger 2001-2013
</metadata>
<g transform="translate(0.000000,128.000000) scale(0.100000,-0.100000)"
fill="#000000" stroke="none">
<path d="M500 1264 c-234 -50 -436 -254 -485 -489 -95 -454 306 -855 760 -760
238 50 440 252 490 490 95 456 -309 857 -765 759z m-138 -164 c6 -62 59 -170
100 -205 25 -21 29 -28 17 -36 -8 -5 -22 -9 -31 -10 -10 -1 -22 -3 -28 -4 -5
-1 -16 -3 -24 -4 -7 0 -44 -21 -82 -46 -66 -43 -112 -55 -106 -26 1 7 -7 15
-18 18 -26 7 -26 30 2 39 l21 6 -24 19 -24 19 35 0 35 0 1 79 c1 61 6 88 23
117 19 34 74 84 92 84 4 0 9 -22 11 -50z m593 19 c55 -48 69 -83 69 -171 l1
-78 35 0 35 -1 -23 -19 c-23 -19 -23 -19 -2 -30 25 -14 26 -27 0 -35 -11 -3
-19 -12 -17 -18 5 -29 -49 -17 -101 22 -36 27 -70 43 -110 51 -31 7 -60 14
-65 17 -4 2 13 27 37 54 50 56 86 139 86 199 0 22 4 40 10 40 5 0 25 -14 45
-31z m-68 -309 c45 -27 106 -109 164 -219 40 -77 49 -102 49 -145 0 -177 -204
-316 -465 -316 -204 0 -375 83 -439 213 -34 66 -34 126 -1 214 32 84 66 143
114 196 69 77 69 77 321 77 206 0 228 -2 257 -20z"/>
<path d="M345 716 c-60 -27 -105 -101 -105 -173 1 -81 64 -165 134 -179 19 -3
66 -1 104 5 88 14 205 14 297 0 39 -5 84 -7 102 -4 69 13 133 99 133 180 0 74
-50 150 -113 174 -44 17 -514 14 -552 -3z m109 -111 c37 -18 76 -79 76 -119 0
-31 -29 -52 -85 -60 -67 -11 -134 37 -151 106 -5 22 0 33 24 58 35 35 83 40
136 15z m435 4 c94 -33 49 -174 -60 -186 -28 -3 -58 1 -82 10 -31 14 -37 21
-37 47 0 51 34 105 77 123 46 19 61 20 102 6z"/>
<path d="M530 297 c0 -9 19 -22 44 -32 42 -16 47 -16 90 0 25 10 51 24 58 33
11 13 7 14 -32 8 -59 -9 -88 -9 -127 -1 -26 6 -33 4 -33 -8z"/>
</g>
</svg>
