<svg xmlns="http://www.w3.org/2000/svg" viewBox="0 0 128 128"><defs><style>.cls-1{fill:#fff;}.cls-2,.cls-3{fill:none;stroke:#000;stroke-miterlimit:10;}.cls-2{stroke-width:2px;}</style></defs><g id="Layer_2" data-name="Layer 2"><g id="mapview"><circle class="cls-1" cx="64" cy="64" r="63"/><path d="M64,2A62,62,0,1,1,2,64,62.07,62.07,0,0,1,64,2m0-2a64,64,0,1,0,64,64A64,64,0,0,0,64,0Z"/><path class="cls-2" d="M39.8,53.31a13.76,13.76,0,0,1-.58,2.48,13.07,13.07,0,1,1,.58-2.48Z"/><ellipse class="cls-2" cx="65.23" cy="63.47" rx="16.99" ry="16.8"/><ellipse class="cls-2" cx="58.4" cy="21.81" rx="10.09" ry="9.98"/><ellipse class="cls-2" cx="34.7" cy="96.07" rx="10.09" ry="9.98"/><ellipse class="cls-2" cx="88.95" cy="98.82" rx="14.33" ry="14.18"/><ellipse class="cls-2" cx="102.44" cy="49.2" rx="9.56" ry="9.45"/><line class="cls-3" x1="59.73" y1="32.05" x2="62.02" y2="47.17"/><line class="cls-3" x1="39.45" y1="55.91" x2="48.79" y2="58.17"/><line class="cls-3" x1="41.52" y1="89.01" x2="53.97" y2="75.78"/><line class="cls-3" x1="94.39" y1="53.45" x2="80.93" y2="58.07"/><line class="cls-3" x1="80.25" y1="87.64" x2="73.98" y2="78.36"/><path class="cls-3" d="M58.4,74.68a19.23,19.23,0,0,0,13.6,0"/><path class="cls-3" d="M17.36,49.2s-.9,5.38,1.12,7.84"/><path class="cls-3" d="M30.5,101.5s4.08,3,7.54,0"/><path class="cls-3" d="M53.5,16.5s4.75-2.56,7.37-.78"/><path class="cls-3" d="M107,45s3.58,6.5-1,10"/><path class="cls-3" d="M98.36,96.07s2.91,8.63-6.47,13.53"/></g></g></svg>