<svg xmlns="http://www.w3.org/2000/svg" viewBox="0 0 128 128"><defs><style>.cls-1{fill:#fff;}.cls-2{stroke:#fff;stroke-miterlimit:10;stroke-width:4px;}</style></defs><g id="Layer_2" data-name="Layer 2"><g id="Layer_5" data-name="Layer 5"><circle class="cls-1" cx="64" cy="64" r="63"/><path d="M64,2A62,62,0,1,1,2,64,62.07,62.07,0,0,1,64,2m0-2a64,64,0,1,0,64,64A64,64,0,0,0,64,0Z"/><path class="cls-1" d="M61,109a44,44,0,0,1-1.51-88A46,46,0,0,0,93.26,94.91,43.9,43.9,0,0,1,61,109Z"/><path d="M57.44,22.15A47,47,0,0,0,91.06,95.74,43,43,0,1,1,57.44,22.15M61,20A45,45,0,1,0,95.41,94,45,45,0,0,1,61.59,20Z"/><circle class="cls-2" cx="55" cy="73" r="4"/><circle class="cls-1" cx="34.5" cy="53.5" r="3.5"/><path d="M34.5,51A2.5,2.5,0,1,1,32,53.5,2.5,2.5,0,0,1,34.5,51m0-2A4.5,4.5,0,1,0,39,53.5,4.49,4.49,0,0,0,34.5,49Z"/><circle class="cls-1" cx="34.5" cy="77.5" r="5.5"/><path d="M34.5,73A4.5,4.5,0,1,1,30,77.5,4.51,4.51,0,0,1,34.5,73m0-2A6.5,6.5,0,1,0,41,77.5,6.5,6.5,0,0,0,34.5,71Z"/><circle class="cls-1" cx="50" cy="91" r="3"/><path d="M50,89a2,2,0,1,1-2,2,2,2,0,0,1,2-2m0-2a4,4,0,1,0,4,4,4,4,0,0,0-4-4Z"/><polygon class="cls-1" points="93.08 75.81 82.89 81.17 84.83 69.82 76.59 61.78 87.98 60.12 93.08 49.79 98.18 60.12 109.58 61.78 101.33 69.82 103.28 81.17 93.08 75.81"/><path d="M93.08,52.05l4,8,.47.95,1,.15,8.87,1.29L101,68.74l-.75.73.17,1L102,79.34,94,75.17l-.93-.49-.93.49-7.93,4.17,1.51-8.83.18-1-.75-.73-6.42-6.26,8.87-1.29,1-.15.46-.95,4-8m0-4.52L87.32,59.21,74.44,61.08l9.32,9.09L81.56,83l11.52-6.06L104.61,83l-2.2-12.83,9.32-9.09L98.85,59.21,93.08,47.53Z"/><polygon class="cls-1" points="75.4 40.17 69.6 38.04 74.82 34.73 75.06 28.56 79.81 32.5 85.76 30.82 83.48 36.56 86.91 41.69 80.75 41.3 76.93 46.15 75.4 40.17"/><path d="M76,30.62l2.79,2.31.81.68,1-.29,3.49-1L82.74,35.7l-.39,1,.59.87,2,3-3.62-.24-1-.06-.65.82-2.25,2.85-.89-3.51-.26-1-1-.36-3.4-1.25,3.06-1.94.89-.57,0-1L76,30.62m-1.85-4.13-.29,7.68-6.49,4.1,7.21,2.66,1.9,7.44,4.75-6,7.66.49L84.6,36.44l2.83-7.14-7.38,2.09-5.92-4.9Z"/></g></g></svg>