<svg xmlns="http://www.w3.org/2000/svg" viewBox="0 0 128 128"><defs><style>.cls-1,.cls-2{fill:#fff;}.cls-2,.cls-3{stroke:#000;stroke-miterlimit:10;stroke-width:2px;}.cls-3{fill:none;}</style></defs><g id="Layer_2" data-name="Layer 2"><g id="Layer_6" data-name="Layer 6"><circle class="cls-1" cx="64" cy="64" r="63"/><path d="M64,2A62,62,0,1,1,2,64,62.07,62.07,0,0,1,64,2m0-2a64,64,0,1,0,64,64A64,64,0,0,0,64,0Z"/><polyline class="cls-2" points="104.54 58 64 29.03 22.7 58"/><path class="cls-3" d="M62.72,56.47c-4.17-2.94-9.75-3.73-13,0s-3.91,9.74,3,13.26,9.38,3.7,11.38,8.86"/><path class="cls-3" d="M62.22,75.28c1.85-2.18,4.51-3,9.52-5.52,6.94-3.52,6.32-9.49,3-13.26-3.16-3.62-8.44-3-12.55-.36-.17.1-.33.21-.49.32"/><path class="cls-3" d="M35,60V94a12,12,0,0,0,12,12h4.2a7.5,7.5,0,0,1-.2-1.72V92.72A7.74,7.74,0,0,1,58.72,85H70.28A7.74,7.74,0,0,1,78,92.72v11.56a7.5,7.5,0,0,1-.2,1.72H81A12,12,0,0,0,93,94V60"/></g></g></svg>