<svg xmlns="http://www.w3.org/2000/svg" viewBox="0 0 128 128"><defs><style>.cls-1{fill:#fff;}</style></defs><g id="Layer_2" data-name="Layer 2"><g id="Layer_4" data-name="Layer 4"><circle class="cls-1" cx="64" cy="64" r="63"/><path d="M64,2A62,62,0,1,1,2,64,62.07,62.07,0,0,1,64,2m0-2a64,64,0,1,0,64,64A64,64,0,0,0,64,0Z"/><path class="cls-1" d="M59.91,110a2.41,2.41,0,0,1-2.41-2.41V94.84l-.77-.18a31.23,31.23,0,0,1-9.27-3.85l-.68-.42-8.12,8.26a2.44,2.44,0,0,1-3.41,0L30,93.55a2.4,2.4,0,0,1,0-3.4l8.08-8.21-.44-.68a31.59,31.59,0,0,1-4.07-9l-.2-.74h-13A2.41,2.41,0,0,1,18,69.09V60.91a2.41,2.41,0,0,1,2.41-2.41H33l.16-.8a31,31,0,0,1,4.12-10.33l.42-.68-8.11-8a2.43,2.43,0,0,1,0-3.4l5.15-5.24a2.41,2.41,0,0,1,3.41,0l8.09,8,.67-.44a31.36,31.36,0,0,1,9.88-4.23l.77-.18V20.41A2.41,2.41,0,0,1,59.91,18h8.18a2.41,2.41,0,0,1,2.41,2.41V33.16l.77.18a31,31,0,0,1,9,3.67l.68.42,8.59-8.76A2.43,2.43,0,0,1,91.24,28a2.39,2.39,0,0,1,1.68.68l5.21,5.13a2.41,2.41,0,0,1,0,3.41l-8.45,8.6.45.68A31.27,31.27,0,0,1,94.87,57.7l.16.8h12.56A2.41,2.41,0,0,1,110,60.91v8.18a2.41,2.41,0,0,1-2.41,2.41h-13l-.2.74a31.76,31.76,0,0,1-3.72,8.48l-.42.68,8.33,8.19a2.42,2.42,0,0,1,0,3.41l-5.14,5.24a2.42,2.42,0,0,1-1.73.71,2.39,2.39,0,0,1-1.68-.68l-8.35-8.21-.67.43a31.44,31.44,0,0,1-9.79,4.17l-.77.18v12.75A2.41,2.41,0,0,1,68.09,110ZM64,49A15,15,0,1,0,79,64,15,15,0,0,0,64,49Z"/><path d="M68.09,19a1.41,1.41,0,0,1,1.41,1.41V34l1.54.37a29.64,29.64,0,0,1,8.68,3.55l1.36.82,1.11-1.13,8-8.19a1.43,1.43,0,0,1,1-.42,1.38,1.38,0,0,1,1,.4l5.21,5.12a1.42,1.42,0,0,1,0,2l-7.88,8-1.14,1.16L89.33,47A30.25,30.25,0,0,1,93.89,57.9l.33,1.6h13.37A1.41,1.41,0,0,1,109,60.91v8.18a1.41,1.41,0,0,1-1.41,1.41H93.85L93.45,72a30.81,30.81,0,0,1-3.59,8.21L89,81.55l1.15,1.13,7.76,7.62a1.44,1.44,0,0,1,0,2l-5.14,5.23a1.43,1.43,0,0,1-1,.42,1.38,1.38,0,0,1-1-.4L83,89.9l-1.14-1.12-1.35.87a29.87,29.87,0,0,1-9.47,4l-1.54.37v13.54A1.41,1.41,0,0,1,68.09,109H59.91a1.41,1.41,0,0,1-1.41-1.41V94.05L57,93.68A30.17,30.17,0,0,1,48,90l-1.36-.84L45.5,90.26,38,98a1.41,1.41,0,0,1-1,.41,1.38,1.38,0,0,1-1-.4l-5.21-5.13a1.4,1.4,0,0,1-.42-1,1.38,1.38,0,0,1,.41-1l7.51-7.64,1.13-1.15-.89-1.34A30.68,30.68,0,0,1,34.55,72l-.4-1.48H20.41A1.41,1.41,0,0,1,19,69.09V60.91a1.41,1.41,0,0,1,1.41-1.41H33.79l.32-1.6a30.1,30.1,0,0,1,4-10L39,46.54,37.8,45.41,30.26,38a1.37,1.37,0,0,1-.41-1,1.34,1.34,0,0,1,.4-1l5.14-5.24a1.41,1.41,0,0,1,2,0l7.52,7.39,1.14,1.12,1.35-.87A30.22,30.22,0,0,1,57,34.32L58.5,34V20.41A1.41,1.41,0,0,1,59.91,19h8.18M64,80A16,16,0,1,0,48,64,16,16,0,0,0,64,80m4.09-63H59.91a3.41,3.41,0,0,0-3.41,3.41v12a32.36,32.36,0,0,0-10.19,4.36l-7.52-7.39a3.4,3.4,0,0,0-4.82,0l-5.15,5.24a3.41,3.41,0,0,0,0,4.81l7.54,7.41A32.16,32.16,0,0,0,32.15,57.5H20.41A3.41,3.41,0,0,0,17,60.91v8.18a3.41,3.41,0,0,0,3.41,3.41H32.62a32.65,32.65,0,0,0,4.19,9.31L29.3,89.45a3.4,3.4,0,0,0,0,4.81l5.21,5.13a3.43,3.43,0,0,0,4.82,0l7.56-7.69a32.23,32.23,0,0,0,9.57,4v12A3.41,3.41,0,0,0,59.91,111h8.18a3.41,3.41,0,0,0,3.41-3.41v-12a32.3,32.3,0,0,0,10.1-4.3L89.38,99a3.38,3.38,0,0,0,2.38,1,3.44,3.44,0,0,0,2.44-1l5.15-5.24a3.43,3.43,0,0,0,0-4.82l-7.76-7.63a32.5,32.5,0,0,0,3.83-8.75h12.21A3.41,3.41,0,0,0,111,69.09V60.91a3.41,3.41,0,0,0-3.41-3.41H95.85A32.35,32.35,0,0,0,91,45.89l7.88-8a3.41,3.41,0,0,0,0-4.82l-5.21-5.13a3.42,3.42,0,0,0-4.82,0l-8,8.19a31.81,31.81,0,0,0-9.26-3.79v-12A3.41,3.41,0,0,0,68.09,17ZM64,78A14,14,0,1,1,78,64,14,14,0,0,1,64,78Z"/></g></g></svg>