<svg xmlns="http://www.w3.org/2000/svg" viewBox="0 0 128 128"><defs><style>.cls-1,.cls-2,.cls-3{fill:#fff;}.cls-2,.cls-3{stroke:#000;stroke-miterlimit:10;}.cls-2{stroke-width:2px;}</style></defs><g id="Layer_2" data-name="Layer 2"><g id="Layer_3" data-name="Layer 3"><circle class="cls-1" cx="64" cy="64" r="63"/><path d="M64,2A62,62,0,1,1,2,64,62.07,62.07,0,0,1,64,2m0-2a64,64,0,1,0,64,64A64,64,0,0,0,64,0Z"/><circle class="cls-2" cx="33" cy="30" r="8"/><circle class="cls-2" cx="32.5" cy="61.5" r="8"/><circle class="cls-2" cx="32.5" cy="92.5" r="8"/><line class="cls-3" x1="33" y1="38" x2="32.5" y2="53.5"/><line class="cls-3" x1="32.5" y1="69.5" x2="32.5" y2="84.5"/><rect class="cls-2" x="53" y="22" width="47" height="16" rx="2.67"/><rect class="cls-2" x="53" y="50" width="53" height="24" rx="2.67"/><rect class="cls-2" x="53" y="85" width="47" height="16" rx="2.67"/><rect class="cls-3" x="58" y="26" width="33" height="2" rx="1"/><rect class="cls-3" x="57.5" y="31.5" width="37" height="2" rx="1"/><rect class="cls-3" x="58" y="54.41" width="34.5" height="2" rx="1"/><rect class="cls-3" x="57.5" y="60.91" width="39" height="2" rx="1"/><rect class="cls-3" x="58" y="89.41" width="37.5" height="2" rx="1"/><rect class="cls-3" x="57.5" y="94.91" width="33" height="2" rx="1"/><rect class="cls-3" x="57.5" y="67.5" width="33" height="2" rx="1"/></g></g></svg>